<?xml version="1.0" encoding="UTF-8" standalone="no"?>
<!-- Created with Inkscape (http://www.inkscape.org/) -->

<svg
   xmlns:dc="http://purl.org/dc/elements/1.1/"
   xmlns:cc="http://creativecommons.org/ns#"
   xmlns:rdf="http://www.w3.org/1999/02/22-rdf-syntax-ns#"
   xmlns:svg="http://www.w3.org/2000/svg"
   xmlns="http://www.w3.org/2000/svg"
   xmlns:sodipodi="http://sodipodi.sourceforge.net/DTD/sodipodi-0.dtd"
   xmlns:inkscape="http://www.inkscape.org/namespaces/inkscape"
   width="106.33263mm"
   height="154.25464mm"
   viewBox="0 0 106.33263 154.25464"
   version="1.1"
   id="svg8"
   inkscape:version="0.92.3 (3ce5693, 2018-03-11)"
   sodipodi:docname="LakeRandom.svg">
  <defs
     id="defs2" />
  <sodipodi:namedview
     id="base"
     pagecolor="#ffffff"
     bordercolor="#666666"
     borderopacity="1.0"
     inkscape:pageopacity="0.0"
     inkscape:pageshadow="2"
     inkscape:zoom="0.98994949"
     inkscape:cx="-203.34791"
     inkscape:cy="408.06879"
     inkscape:document-units="mm"
     inkscape:current-layer="layer1"
     showgrid="false"
     inkscape:window-width="1849"
     inkscape:window-height="1018"
     inkscape:window-x="71"
     inkscape:window-y="34"
     inkscape:window-maximized="1"
     fit-margin-top="0"
     fit-margin-left="0"
     fit-margin-right="0"
     fit-margin-bottom="0" />
  <metadata
     id="metadata5">
    <rdf:RDF>
      <cc:Work
         rdf:about="">
        <dc:format>image/svg+xml</dc:format>
        <dc:type
           rdf:resource="http://purl.org/dc/dcmitype/StillImage" />
        <dc:title />
      </cc:Work>
    </rdf:RDF>
  </metadata>
  <g
     inkscape:label="Layer 1"
     inkscape:groupmode="layer"
     id="layer1"
     transform="translate(-49.392857,-87.073395)">
    <path
       style="fill:#00aad4;stroke:#006680;stroke-width:1;stroke-linecap:butt;stroke-linejoin:miter;stroke-miterlimit:4;stroke-dasharray:none;stroke-opacity:1"
       d="m 95.249999,104.23214 c -41.577381,43.84524 -45.357142,73.32738 -45.357142,73.32738 0,0 0,54.42857 18.898809,61.9881 18.898809,7.55952 30.238094,-20.41072 39.309524,-27.21429 9.07143,-6.80357 54.42857,-34.77381 46.11309,-60.47619 -8.31547,-25.70238 -23.43452,-63.499997 -27.97023,-64.255952 -4.53572,-0.755951 -30.994051,16.630952 -30.994051,16.630952 z"
       id="path817"
       inkscape:connector-curvature="0" />
    <path
       style="fill:none;stroke:#ff0000;stroke-width:2;stroke-linecap:butt;stroke-linejoin:miter;stroke-miterlimit:4;stroke-dasharray:none;stroke-opacity:1"
       d="m 69.117081,168.09618 c 0,0 -7.216277,12.82894 -5.078121,15.50163 2.138156,2.6727 4.543582,10.42351 7.216278,7.21628 2.672695,-3.20724 4.810851,-6.1472 3.741773,-6.1472 -1.069078,0 -1.603617,3.74177 -4.009043,2.40543 -2.405426,-1.33635 -1.069078,-8.8199 -1.069078,-8.8199 l -3.207234,-0.26727 -11.527129,-0.42563 9.656242,6.8401 1.336347,-4.81085 -3.474503,-4.81085 c 0,0 1.069078,-4.00905 2.672695,-1.87089 1.603617,2.13816 11.492589,8.8199 11.492589,8.8199 l -6.949007,2.67269 -6.414469,4.81085 0.534539,5.34539"
       id="path876"
       inkscape:connector-curvature="0" />
    <path
       style="fill:none;stroke:#ff0000;stroke-width:2;stroke-linecap:butt;stroke-linejoin:miter;stroke-opacity:1;stroke-miterlimit:4;stroke-dasharray:none"
       d="m 102.57949,123.72944 c 0,0 2.40543,-8.55263 6.68174,-5.07812 4.27631,3.4745 6.1472,3.20723 6.1472,3.20723 0,0 6.1472,-2.93996 5.61266,-4.81085 -0.53454,-1.87089 -1.33635,-4.54358 -1.33635,-5.61266 0,-1.06908 -1.06908,-8.01809 0,-8.8199 1.06908,-0.8018 2.93997,-5.612655 4.81085,-4.810847 1.87089,0.801809 2.93997,2.138157 5.34539,5.078117 2.40543,2.93997 5.07812,7.21628 5.07812,7.21628 l 4.81086,6.68174 -4.81086,4.00904 c 0,0 -3.74177,-1.87088 -5.61266,-0.80181 -1.87088,1.06908 -5.61265,3.47451 -5.61265,3.47451 l 2.93996,3.20723"
       id="path878"
       inkscape:connector-curvature="0" />
    <path
       style="fill:none;stroke:#ff0000;stroke-width:2;stroke-linecap:butt;stroke-linejoin:miter;stroke-opacity:1;stroke-miterlimit:4;stroke-dasharray:none"
       d="m 147.48077,160.8799 -1.87088,8.01809 c 0,0 -2.13816,4.27631 -4.54359,6.41446 -2.40542,2.13816 -8.55262,7.75082 -8.55262,7.75082 l -8.81989,10.42351 -6.1472,-1.33634 -8.55263,6.14719"
       id="path882"
       inkscape:connector-curvature="0" />
    <path
       style="fill:none;stroke:#ff0000;stroke-width:2;stroke-linecap:butt;stroke-linejoin:miter;stroke-opacity:1;stroke-miterlimit:4;stroke-dasharray:none"
       d="m 68.636263,217.27377 3.741773,-4.81085 c 0,0 -4.543582,6.1472 4.276313,6.68174 8.819893,0.53454 10.423511,-2.40543 10.423511,-2.40543 l -2.405425,-4.27631 -3.474505,-1.87088 3.474505,-3.74178 c 0,0 -1.069078,-1.33634 4.543581,-6.94901 5.612659,-5.61265 4.810853,-8.01808 4.810853,-8.01808 l -0.53454,-6.94901"
       id="path2597"
       inkscape:connector-curvature="0" />
  </g>
</svg>
